# xmcd
# Track frame offsets:
# 150
# 11720
# 27260
# 45403
# 62757
# 76373
# 88057
# 102132
# 118816
# 134045
# 149609
# 161939
#
# Disc length: 2361 seconds
# Revision: 0
# Processed by: cddbd v1.4PL0 Copyright (c) Steve Scherf et al.
# Submitted via: VisiTrax 2.9.3.171 - For more info visit www.synapsa.com
#
DISCID=a909370c
DTITLE=Various Artist - Country Opry #1
DYEAR=1900
DGENRE=
TTITLE0=Fool such as I
TTITLE1=Welcome to my world
TTITLE2=My mama's love
TTITLE3=Child support
TTITLE4=One horse town
TTITLE5=Skip a rope
TTITLE6=Welcome to the world of broken hearts
TTITLE7=Toe to toe with the devil
TTITLE8=Ragged old flag
TTITLE9=Caravan of dreams
TTITLE10=Didn't I
TTITLE11=There's a ghost in my house
EXTD=
EXTT0=
EXTT1=
EXTT2=
EXTT3=
EXTT4=
EXTT5=
EXTT6=
EXTT7=
EXTT8=
EXTT9=
EXTT10=
EXTT11=
PLAYORDER=
